# Generated by MaloW's Obj-exporter


mtllib grass.mtl
g default
v -0.500000 0.000000 0.500000
v 0.500000 0.000000 0.500000
v -0.500000 0.000000 -0.500000
v 0.500000 0.000000 -0.500000
vt -17.9280757904 -18.330286026
vt 18.9280757904 -18.330286026
vt -17.9280757904 19.7561206818
vt 18.9280757904 19.7561206818
vn 0.000000 1.000000 0.000000
vn 0.000000 1.000000 0.000000
vn 0.000000 1.000000 0.000000
vn 0.000000 1.000000 0.000000
s 0
g pPlane1
usemtl lambert2SG
f 1/1/1 2/2/2 3/3/3 
f 3/3/3 2/2/2 4/4/4 
